<?xml version="1.0" encoding="utf-8"?>
<!-- Generator: Adobe Illustrator 27.5.0, SVG Export Plug-In . SVG Version: 6.00 Build 0)  -->
<svg version="1.1" xmlns="http://www.w3.org/2000/svg" xmlns:xlink="http://www.w3.org/1999/xlink" x="0px" y="0px"
	 viewBox="0 0 650 500" style="enable-background:new 0 0 650 500;" xml:space="preserve">
<g id="BACKGROUND">
	<rect style="fill:#EAEFFF;" width="650" height="500"/>
</g>
<g id="OBJECTS">
	<path style="fill:#D5DEFE;" d="M463.856,179.378c-8.081-3.559-18.796-5.758-21.028-14.302c-2.179-8.345,5.695-15.46,10.464-22.646
		c12.898-19.431,1.855-48.134-18.538-59.451c-20.392-11.317-46.163-8.302-67.453,1.219c-21.29,9.521-39.373,24.792-58.291,38.432
		c-18.918,13.64-42.034,24.911-65.355,25.157c-20.472,0.215-44.476-4.111-64.218,1.312c-43.642,11.987-77.915,52.537-82.462,97.567
		c-4.547,45.029,20.926,91.613,61.29,112.084c28.4,14.403,61.922,16.163,93.27,10.568c31.348-5.595,61.002-18.085,90.039-31.156
		l103.44-47.355c19.007-13.001,36.423-30.414,42.497-52.626C493.586,215.966,484.931,188.659,463.856,179.378z"/>
	<g>
		<g>
			
				<ellipse transform="matrix(0.3689 -0.9295 0.9295 0.3689 -178.1594 260.9495)" style="fill:#FFB928;" cx="103.071" cy="261.663" rx="13.45" ry="13.45"/>
			<path style="fill:#F08200;" d="M108.941,262.013c-1.044-1.547-3.334-2.1-6.284-1.515c-1.771,0.351-3.105,0.168-3.567-0.489
				c-0.281-0.397-0.223-1.011,0.153-1.64c0.703-1.179,2.551-2.431,5.442-2.083l0.225-1.871c-1.357-0.164-2.546-0.037-3.563,0.265
				l-1.115-2.583l-1.73,0.747l1.123,2.6c-0.914,0.562-1.588,1.269-2,1.958c-0.769,1.288-0.797,2.668-0.075,3.692
				c0.54,0.765,1.968,1.946,5.475,1.251c2.136-0.423,3.764-0.154,4.354,0.72c0.34,0.504,0.28,1.206-0.16,1.879
				c-0.811,1.241-3.023,2.458-6.586,1.805l-0.34,1.854c1.965,0.36,3.612,0.24,4.947-0.156l1.116,2.585l1.73-0.747l-1.118-2.588
				c0.808-0.49,1.418-1.095,1.827-1.721C109.652,264.669,109.707,263.15,108.941,262.013z"/>
		</g>
		<g>
			<path style="fill:#FFB928;" d="M467.868,115.208c2.792-6.884-0.525-14.727-7.408-17.519c-6.884-2.792-14.727,0.525-17.519,7.408
				c-2.792,6.884,0.525,14.727,7.408,17.519C457.233,125.408,465.076,122.091,467.868,115.208z"/>
			<path style="fill:#F08200;" d="M459.274,114.58c0.37-1.829-0.844-3.849-3.33-5.54c-1.492-1.015-2.298-2.094-2.155-2.884
				c0.086-0.479,0.563-0.868,1.276-1.042c1.333-0.326,3.522,0.111,5.303,2.415l1.491-1.152c-0.836-1.082-1.76-1.84-2.689-2.352
				l1.058-2.607l-1.747-0.708l-1.065,2.624c-1.041-0.257-2.018-0.241-2.798-0.051c-1.457,0.356-2.46,1.305-2.683,2.538
				c-0.167,0.922-0.005,2.768,2.95,4.778c1.801,1.225,2.751,2.574,2.543,3.608c-0.121,0.596-0.663,1.046-1.451,1.205
				c-1.454,0.293-3.873-0.429-5.908-3.425l-1.559,1.059c1.122,1.652,2.364,2.741,3.583,3.415l-1.058,2.609l1.747,0.709l1.06-2.613
				c0.916,0.231,1.776,0.242,2.508,0.094C457.88,116.951,459.002,115.924,459.274,114.58z"/>
		</g>
		<g>
			<path style="fill:#FFB928;" d="M412.109,422.919c-2.472-7.005-10.155-10.679-17.16-8.206c-7.005,2.472-10.679,10.155-8.206,17.16
				c2.473,7.005,10.155,10.679,17.16,8.206C410.907,437.607,414.581,429.924,412.109,422.919z"/>
			<path style="fill:#F08200;" d="M405.258,428.147c-0.936-1.615-3.183-2.322-6.165-1.94c-1.791,0.229-3.109-0.044-3.526-0.731
				c-0.253-0.416-0.154-1.024,0.264-1.626c0.782-1.128,2.711-2.251,5.571-1.707l0.352-1.851c-1.343-0.256-2.537-0.211-3.572,0.022
				l-0.936-2.653l-1.777,0.627l0.943,2.671c-0.95,0.498-1.671,1.158-2.129,1.817c-0.855,1.232-0.977,2.608-0.327,3.679
				c0.486,0.801,1.831,2.076,5.376,1.622c2.16-0.276,3.766,0.103,4.295,1.016c0.305,0.526,0.197,1.223-0.288,1.864
				c-0.894,1.183-3.184,2.246-6.694,1.351l-0.465,1.827c1.935,0.493,3.587,0.485,4.946,0.182l0.937,2.655l1.777-0.627l-0.938-2.659
				c0.839-0.434,1.49-0.996,1.94-1.592C405.786,430.845,405.945,429.333,405.258,428.147z"/>
		</g>
		<g>
			
				<ellipse transform="matrix(0.9999 -0.0157 0.0157 0.9999 -1.2966 8.3057)" style="fill:#FFB928;" cx="528.616" cy="86.774" rx="13.45" ry="13.45"/>
			<path style="fill:#F08200;" d="M534.361,88.024c-0.793-1.69-2.971-2.588-5.975-2.465c-1.804,0.074-3.094-0.312-3.449-1.032
				c-0.216-0.436-0.065-1.033,0.403-1.597c0.877-1.056,2.895-2.009,5.698-1.22l0.511-1.814c-1.315-0.371-2.51-0.428-3.561-0.286
				l-0.704-2.724l-1.825,0.472l0.709,2.742c-0.989,0.414-1.765,1.009-2.277,1.627c-0.958,1.154-1.199,2.514-0.643,3.637
				c0.415,0.839,1.645,2.226,5.217,2.079c2.176-0.089,3.743,0.428,4.192,1.382c0.258,0.55,0.091,1.235-0.448,1.832
				c-0.993,1.101-3.366,1.963-6.786,0.769l-0.621,1.78c1.886,0.658,3.531,0.793,4.912,0.607l0.705,2.726l1.825-0.472l-0.706-2.73
				c0.874-0.36,1.57-0.864,2.07-1.419C534.655,90.758,534.944,89.265,534.361,88.024z"/>
		</g>
		<g>
			<path style="fill:#FFB928;" d="M499.068,368.122c2.421-7.023-1.309-14.678-8.332-17.1c-7.023-2.421-14.678,1.309-17.099,8.332
				c-2.421,7.023,1.309,14.678,8.332,17.099C488.991,378.875,496.646,375.144,499.068,368.122z"/>
			<path style="fill:#F08200;" d="M490.452,367.953c0.272-1.846-1.048-3.798-3.621-5.354c-1.544-0.935-2.407-1.969-2.306-2.765
				c0.061-0.483,0.516-0.897,1.218-1.109c1.314-0.396,3.522-0.076,5.424,2.129l1.428-1.23c-0.892-1.035-1.856-1.743-2.811-2.205
				l0.917-2.66l-1.782-0.614l-0.923,2.677c-1.054-0.201-2.028-0.133-2.797,0.099c-1.436,0.433-2.388,1.434-2.544,2.677
				c-0.117,0.929,0.143,2.764,3.201,4.614c1.863,1.127,2.885,2.424,2.731,3.467c-0.089,0.601-0.606,1.08-1.385,1.28
				c-1.436,0.37-3.89-0.222-6.082-3.106l-1.5,1.141c1.209,1.59,2.507,2.611,3.76,3.219l-0.918,2.662l1.782,0.614l0.919-2.665
				c0.927,0.182,1.786,0.147,2.51-0.039C489.187,370.395,490.252,369.31,490.452,367.953z"/>
		</g>
	</g>
	<g>
		<circle style="fill:#436CFC;" cx="453.603" cy="77.446" r="2"/>
		<circle style="fill:#436CFC;" cx="337.314" cy="66.887" r="2"/>
		<circle style="fill:#436CFC;" cx="484.447" cy="330.396" r="2"/>
		<circle style="fill:#060305;" cx="361.051" cy="417.66" r="2"/>
		<circle style="fill:#436CFC;" cx="493.565" cy="142.09" r="2"/>
		<circle style="fill:#436CFC;" cx="461.858" cy="213.897" r="2"/>
		<circle style="fill:#829DFD;" cx="185.219" cy="329.281" r="2"/>
		<circle style="fill:#829DFD;" cx="137.097" cy="138.614" r="2"/>
		<circle style="fill:#436CFC;" cx="290.703" cy="290.506" r="2"/>
		<circle style="fill:#829DFD;" cx="522.952" cy="313.538" r="4"/>
		<circle style="fill:#FFFFFF;" cx="380.369" cy="181.45" r="4"/>
		<circle style="fill:#829DFD;" cx="155.746" cy="276.122" r="4"/>
		<polygon style="fill:#829DFD;" points="453.986,30.473 444.336,36.045 453.986,41.617 		"/>
		<polygon style="fill:#FFFFFF;" points="308.34,295.358 304.312,305.749 315.324,304.042 		"/>
		<polygon style="fill:#060305;" points="153.115,212.197 142.352,215.081 150.231,222.961 		"/>
		<polygon style="fill:#829DFD;" points="389.607,118.856 384.841,128.929 395.947,128.02 		"/>
		<path style="fill:#829DFD;" d="M422.31,197.614c-0.088-2.306-2.134-4.379-5.614-5.687c-2.089-0.786-3.371-1.847-3.429-2.839
			c-0.036-0.6,0.424-1.207,1.229-1.624c1.507-0.78,4.264-0.891,7.074,1.359l1.456-1.819c-1.319-1.056-2.65-1.698-3.916-2.043
			l0.512-3.441l-2.305-0.343l-0.515,3.463c-1.326-0.005-2.495,0.298-3.377,0.754c-1.647,0.852-2.577,2.283-2.486,3.83
			c0.068,1.156,0.799,3.327,4.936,4.883c2.52,0.948,4.055,2.292,4.105,3.595c0.029,0.751-0.492,1.45-1.393,1.87
			c-1.661,0.775-4.778,0.612-8.096-2.397l-1.565,1.727c1.829,1.658,3.638,2.606,5.299,3.06l-0.512,3.443l2.305,0.343l0.513-3.448
			c1.168,0.012,2.204-0.226,3.041-0.617C421.327,200.868,422.375,199.308,422.31,197.614z"/>
		<path style="fill:#436CFC;" d="M166.41,100.8c-1.813-1.428-4.717-1.214-7.969,0.588c-1.952,1.081-3.592,1.37-4.384,0.771
			c-0.48-0.362-0.644-1.106-0.439-1.989c0.383-1.653,2.085-3.824,5.62-4.506l-0.441-2.288c-1.659,0.32-3.011,0.917-4.094,1.657
			l-2.288-2.62l-1.755,1.533l2.303,2.637c-0.864,1.007-1.391,2.093-1.615,3.06c-0.419,1.807,0.068,3.442,1.305,4.376
			c0.924,0.697,3.052,1.548,6.918-0.593c2.355-1.304,4.374-1.602,5.398-0.795c0.59,0.465,0.785,1.314,0.521,2.273
			c-0.487,1.768-2.632,4.035-7.073,4.611l0.3,2.311c2.449-0.318,4.342-1.081,5.765-2.051l2.29,2.622l1.755-1.533l-2.293-2.625
			c0.766-0.882,1.257-1.825,1.502-2.715C168.249,103.659,167.741,101.849,166.41,100.8z"/>
		<path style="fill:#829DFD;" d="M301.366,58.698c-0.878-2.134-3.514-3.374-7.231-3.401c-2.232-0.017-3.801-0.571-4.198-1.481
			c-0.241-0.551-0.018-1.279,0.594-1.948c1.146-1.252,3.695-2.307,7.109-1.165l0.739-2.209c-1.602-0.537-3.074-0.68-4.38-0.567
			l-0.706-3.406l-2.282,0.473l0.711,3.428c-1.247,0.453-2.24,1.14-2.91,1.872c-1.253,1.368-1.631,3.032-1.012,4.453
			c0.463,1.061,1.898,2.847,6.317,2.88c2.693,0.02,4.597,0.752,5.093,1.958c0.286,0.695,0.039,1.531-0.663,2.236
			c-1.292,1.301-4.274,2.223-8.425,0.544l-0.873,2.161c2.289,0.925,4.313,1.19,6.029,1.044l0.707,3.409l2.282-0.473l-0.708-3.413
			c1.1-0.392,1.991-0.973,2.642-1.628C301.565,62.092,302.011,60.266,301.366,58.698z"/>
		<path style="fill:#FFFFFF;" d="M119.086,358.241c-1.385-1.845-4.247-2.385-7.853-1.479c-2.165,0.543-3.823,0.401-4.435-0.381
			c-0.371-0.473-0.339-1.234,0.086-2.035c0.795-1.499,2.998-3.16,6.589-2.911l0.162-2.324c-1.686-0.117-3.146,0.113-4.382,0.549
			l-1.538-3.12l-2.09,1.03l1.548,3.141c-1.093,0.751-1.882,1.666-2.347,2.542c-0.869,1.638-0.818,3.344,0.137,4.564
			c0.714,0.911,2.552,2.28,6.838,1.204c2.611-0.656,4.639-0.424,5.422,0.618c0.451,0.601,0.421,1.472-0.081,2.331
			c-0.924,1.583-3.58,3.224-8.02,2.639l-0.304,2.311c2.448,0.322,4.474,0.071,6.098-0.501l1.539,3.122l2.09-1.03l-1.541-3.126
			c0.967-0.656,1.683-1.441,2.149-2.238C120.129,361.477,120.103,359.597,119.086,358.241z"/>
		<polygon style="fill:#FFFFFF;" points="464.354,394.821 462.855,393.322 458.912,397.265 454.969,393.322 453.47,394.821 
			457.413,398.764 453.47,402.707 454.969,404.206 458.912,400.263 462.855,404.206 464.354,402.707 460.411,398.764 		"/>
		<polygon style="fill:#436CFC;" points="198.656,241.483 196.698,240.669 194.557,245.818 189.408,243.677 188.594,245.634 
			193.743,247.775 191.602,252.924 193.559,253.738 195.7,248.589 200.849,250.73 201.663,248.773 196.514,246.632 		"/>
		<polygon style="fill:#060305;" points="470.572,157.408 470.326,155.302 464.787,155.949 464.14,150.411 462.034,150.657 
			462.682,156.195 457.143,156.842 457.389,158.948 462.928,158.301 463.575,163.839 465.681,163.593 465.033,158.055 		"/>
	</g>
	<g>
		<g>
			<path style="fill:#FF9A7D;" d="M331.542,174.467c-6.447,4.526-12.333,8.807-18.78,13.333c-6.991-2.876-14.08-6.449-21.071-9.325
				c0.129-5.244,3.002-10.392,6.364-14.419c2.497-2.991,4.871-5.865,7.368-8.856c-2.352-1.178-4.705-2.356-7.057-3.533
				c-1.271-11.847,2.12-24.358,10.305-33.017c8.02,5.066,16.167,10.08,24.188,15.146c6.969,4.402,11.35,12.947,11.135,21.188
				C343.78,163.222,338.288,169.73,331.542,174.467z"/>
			<path style="fill:none;stroke:#060305;stroke-width:0.7;stroke-linecap:round;stroke-linejoin:round;stroke-miterlimit:10;" d="
				M305.353,155.124c2.501-3.329,5.608-6.201,9.123-8.435"/>
		</g>
		<path style="fill:#FF9A7D;" d="M170.76,150.772c10.672-16.059,40.004-29.362,40.004-29.362l8.734,35.715l-20.643,8.958
			L170.76,150.772z"/>
		<g>
			<g>
				<path style="fill:#FFFFFF;" d="M300.269,143.19c1.04,5.32-1.33,11.15-5.54,14.59c-0.43,6.43-0.95,12.74-1.38,19.17l-67.08,1.53
					c-0.67-6.87-1.48-13.9-2.15-20.77c-3.09,1.18-5.87,2.02-8.95,3.2c-5.85-12.04-11.78-23.84-17.63-35.87
					c8.09-3.25,16.26-6.54,24.4-9.75c1.94-0.77,3.88-1.53,5.82-2.29c5.8-2.28,11.61-4.55,17.41-6.82c3.14,2.87,7.04,4.35,11.29,4.47
					c4.25,0.13,8.53-1.31,11.83-3.98c6.78,1.29,13.52,2.82,20.2,4.59c8.09,2.13,16.08,4.63,23.91,7.5
					C308.399,126.9,304.259,135.05,300.269,143.19z"/>
				<path style="fill:none;stroke:#060305;stroke-width:0.7;stroke-linecap:round;stroke-linejoin:round;stroke-miterlimit:10;" d="
					M259.096,112.709c0.817,4.393,1.635,8.787,2.452,13.18"/>
				<path style="fill:none;stroke:#060305;stroke-width:0.7;stroke-linecap:round;stroke-linejoin:round;stroke-miterlimit:10;" d="
					M235.584,158.445c2.827,2.724,6.785,4.236,10.709,4.091c3.923-0.145,7.759-1.945,10.378-4.87"/>
				<path style="fill:none;stroke:#060305;stroke-width:0.7;stroke-linecap:round;stroke-linejoin:round;stroke-miterlimit:10;" d="
					M294.503,157.792c-2.177,1.309-4.659,2.108-7.19,2.314"/>
			</g>
			<path style="fill:#97ADFD;" d="M269.17,106.126l-6.319-1.637c-1.43,1.391-3.533,2.056-5.502,1.741
				c-1.97-0.316-4.056-1.403-4.979-3.171c-3.163,1.06-5.987,1.992-9.15,3.051c3.037,5.072,6.074,10.144,9.11,15.216
				c2.139-3.501,4.391-6.984,6.53-10.485c3.756,2.743,7.503,5.506,11.259,8.249C269.843,114.776,269.447,110.439,269.17,106.126z"/>
			<g>
				<path style="fill:#97ADFD;" d="M224.119,157.71c-3.09,1.18-5.87,2.02-8.95,3.2c-5.85-12.04-11.78-23.84-17.63-35.87
					c8.09-3.25,16.26-6.54,24.4-9.75C228.829,125.73,230.399,144.61,224.119,157.71z"/>
				<path style="fill:none;stroke:#060305;stroke-width:0.7;stroke-linecap:round;stroke-linejoin:round;stroke-miterlimit:10;" d="
					M201.006,123.976c5.42,11.825,10.84,23.649,16.26,35.474"/>
			</g>
			<g>
				<path style="fill:#97ADFD;" d="M300.269,143.19c0,0-1.446-4.17-5.94-10.12l-5.84-21.81c8.09,2.13,16.08,4.63,23.91,7.5
					C308.399,126.9,304.259,135.05,300.269,143.19z"/>
				<path style="fill:none;stroke:#060305;stroke-width:0.7;stroke-linecap:round;stroke-linejoin:round;stroke-miterlimit:10;" d="
					M308.785,117.795c-3.031,7.736-6.061,15.473-9.092,23.21"/>
			</g>
		</g>
		<g>
			<path style="fill:#060305;" d="M384.971,304.578c-1.868-0.78-4.152-0.406-6.128-0.845c-3.684-0.819-6.326-4.264-7.308-7.909
				c-0.982-3.644-0.614-7.499-0.238-11.255c-14.029,2.568-27.77,5.116-41.799,7.683c0.796,9.809,1.569,19.486,2.365,29.296
				l56.66-12.459C388.466,307.066,386.838,305.358,384.971,304.578z"/>
			<path style="fill:none;stroke:#FFFFFF;stroke-width:0.7;stroke-linecap:round;stroke-linejoin:round;stroke-miterlimit:10;" d="
				M358.144,298.273c3.73-0.841,7.461-1.682,11.191-2.523"/>
			<path style="fill:none;stroke:#FFFFFF;stroke-width:0.7;stroke-linecap:round;stroke-linejoin:round;stroke-miterlimit:10;" d="
				M358.982,301.164c3.799-0.807,7.598-1.614,11.397-2.421"/>
			<path style="fill:none;stroke:#FFFFFF;stroke-width:0.7;stroke-linecap:round;stroke-linejoin:round;stroke-miterlimit:10;" d="
				M360.169,303.826c3.761-0.688,7.522-1.375,11.283-2.063"/>
		</g>
		<g>
			<path style="fill:#060305;" d="M269.468,366.876c-14.83,1.339-29.554,3.002-44.384,4.341c1.984,6.582,0.889,14.025-2.907,19.756
				c-1.837,2.774-4.518,5.151-4.121,8.455l52.863-8.25C270.44,383.174,269.946,374.88,269.468,366.876z"/>
			<path style="fill:none;stroke:#FFFFFF;stroke-width:0.7;stroke-linecap:round;stroke-linejoin:round;stroke-miterlimit:10;" d="
				M234.856,380.561c5.416-0.837,10.832-1.673,16.247-2.51"/>
			<path style="fill:none;stroke:#FFFFFF;stroke-width:0.7;stroke-linecap:round;stroke-linejoin:round;stroke-miterlimit:10;" d="
				M234.956,383.507c5.838-1.011,11.676-2.021,17.514-3.032"/>
			<path style="fill:none;stroke:#FFFFFF;stroke-width:0.7;stroke-linecap:round;stroke-linejoin:round;stroke-miterlimit:10;" d="
				M234.978,386.585c6.11-0.986,12.221-1.972,18.331-2.959"/>
		</g>
		<g>
			<path style="fill:#436CFC;" d="M366.516,222.983c-1.699-15.867-17.959-25.345-32.722-31.405
				c-13.138-5.393-26.519-10.531-39.657-15.925c0-1.176,0-2.353,0-3.529l-68.408,3.41c-10.145,26.164-13.73,54.843-10.337,82.699
				c4.7,38.58,5.422,77.531,8.646,116.263c15.613-1.435,30.971-2.897,46.584-4.332c0.445-47.216,1.801-93.177,2.246-140.393
				c16.531,6.475,34.322,11.538,51.642,15.438c1.165,16.723,2.909,33.496,4.073,50.219c15.059-2.193,30.243-4.511,45.303-6.705
				C371.553,266.918,368.85,244.789,366.516,222.983z"/>
			<path style="fill:none;stroke:#060305;stroke-width:0.7;stroke-linecap:round;stroke-linejoin:round;stroke-miterlimit:10;" d="
				M224.654,178.704c23.231-0.89,46.461-1.771,69.692-2.652"/>
			<path style="fill:none;stroke:#060305;stroke-width:0.7;stroke-linecap:round;stroke-linejoin:round;stroke-miterlimit:10;" d="
				M237.527,178.589c-1.989,7.007-7.62,12.87-14.541,15.14"/>
			<path style="fill:none;stroke:#060305;stroke-width:0.7;stroke-linecap:round;stroke-linejoin:round;stroke-miterlimit:10;" d="
				M267.144,177.405c0.83,4.007,1.66,8.014,2.49,12.02c1.686-0.039,3.288-0.299,4.975-0.338c0.08-4-0.035-8.139,0.045-12.139"/>
			<path style="fill:none;stroke:#060305;stroke-width:0.7;stroke-linecap:round;stroke-linejoin:round;stroke-miterlimit:10;" d="
				M273.518,223.544c-0.226,2.428-0.453,4.857-0.679,7.286"/>
			<path style="fill:none;stroke:#060305;stroke-width:0.7;stroke-linecap:round;stroke-linejoin:round;stroke-miterlimit:10;" d="
				M325.909,240.038c-0.518,2.007-1.036,4.014-1.555,6.02c0.934-1.321,1.867-2.643,2.801-3.964"/>
			<path style="fill:none;stroke:#060305;stroke-width:0.7;stroke-linecap:round;stroke-linejoin:round;stroke-miterlimit:10;" d="
				M328.015,287.615c14.94-1.896,29.879-3.791,44.819-5.687"/>
			<path style="fill:none;stroke:#060305;stroke-width:0.7;stroke-linecap:round;stroke-linejoin:round;stroke-miterlimit:10;" d="
				M223.552,367.336c15.756-1.141,31.512-2.282,47.268-3.423"/>
		</g>
		<g>
			<g>
				<path style="fill:none;stroke:#060305;stroke-width:0.7;stroke-linecap:round;stroke-linejoin:round;stroke-miterlimit:10;" d="
					M237.014,77.004c8.492,0.407,19.408,0.77,25.829,1.541"/>
				<path style="fill:#060305;" d="M267.685,80.528c-1.737-2.367-5.025-2.668-7.96-2.632c-7.676,0.093-15.352,0.187-23.028,0.28
					l-1.31,6.573c1.676,0.104,3.353,0.208,5.029,0.312c-1.782,0.686-3.601,1.273-5.444,1.772l-1.362,6.834
					c6.208,0.623,12.305,1.133,18.513,1.756c4.249-3.889,10.005-6.368,15.759-6.626C269.504,86.35,269.421,82.895,267.685,80.528z"
					/>
			</g>
			<g>
				<path style="fill:#FF9A7D;" d="M264.694,107.358c-0.063-1.529-0.065-3.256-0.128-4.785c1.954-0.234,3.8-1.272,5.015-2.821
					c1.215-1.549,1.827-3.486,1.65-5.447c-0.28-3.102-0.676-6.364-2.384-8.969c-1.065-1.625-2.953-2.43-4.895-2.512
					c-1.342,2.186-4.076,3.824-6.632,3.61c-0.721,1.315-1.516,2.264-2.237,3.579c-1.718-1.144-4.138-1.116-5.829,0.069
					c-1.691,1.184-2.545,3.448-2.057,5.454c0.488,2.006,2.286,3.625,4.332,3.901c-0.287,2.354-0.675,4.522-0.962,6.875
					c1.512,2.185,3.829,3.7,6.465,4.035C259.669,110.683,262.683,109.096,264.694,107.358z"/>
				<g>
					<circle style="fill:#060305;" cx="260.723" cy="91.794" r="0.7"/>
					<circle style="fill:#060305;" cx="268.773" cy="91.094" r="0.7"/>
					
						<path style="fill:none;stroke:#060305;stroke-width:0.7;stroke-linecap:round;stroke-linejoin:round;stroke-miterlimit:10;" d="
						M265.31,91.066c0.196,1.01,0.392,2.019,0.589,3.029c-0.45,0.008-0.899,0.015-1.349,0.023"/>
					
						<path style="fill:none;stroke:#060305;stroke-width:0.7;stroke-linecap:round;stroke-linejoin:round;stroke-miterlimit:10;" d="
						M258.943,88.314c0.239-0.734,0.903-1.311,1.663-1.446c0.76-0.134,1.582,0.181,2.058,0.788"/>
					
						<path style="fill:none;stroke:#060305;stroke-width:0.7;stroke-linecap:round;stroke-linejoin:round;stroke-miterlimit:10;" d="
						M267.026,87.612c0.804-0.294,1.608-0.588,2.412-0.882"/>
					
						<path style="fill:none;stroke:#060305;stroke-width:0.7;stroke-linecap:round;stroke-linejoin:round;stroke-miterlimit:10;" d="
						M262.249,95.183c-0.017,0.415,0.25,0.827,0.636,0.981c0.386,0.154,0.863,0.039,1.137-0.273"/>
				</g>
				<g>
					
						<path style="fill:none;stroke:#060305;stroke-width:0.7;stroke-linecap:round;stroke-linejoin:round;stroke-miterlimit:10;" d="
						M250.509,92.073c1.175,0.434,2.351,0.869,3.526,1.303"/>
					
						<path style="fill:none;stroke:#060305;stroke-width:0.7;stroke-linecap:round;stroke-linejoin:round;stroke-miterlimit:10;" d="
						M251.37,99.59c0.608,0.029,1.217,0.057,1.825,0.086"/>
					
						<path style="fill:none;stroke:#060305;stroke-width:0.7;stroke-linecap:round;stroke-linejoin:round;stroke-miterlimit:10;" d="
						M264.838,102.682c-2.406,0.418-4.909,0.262-7.244-0.453"/>
				</g>
				<path style="fill:none;stroke:#060305;stroke-width:0.7;stroke-linecap:round;stroke-linejoin:round;stroke-miterlimit:10;" d="
					M263.895,82.36c0.122,1.161-0.271,2.367-1.055,3.231"/>
			</g>
		</g>
		<g>
			<path style="fill:#FF9A7D;" d="M205.085,159.272c5.523,6.938,16.295,20.864,16.295,20.864s3.157,13.599,4.596,20.26
				c-3.002,6.15-6.997,11.623-11.84,16.458c-5.332-0.414-10.62-1.245-15.952-1.659c0.41-1.499,1.667-2.65,3.075-3.309
				c1.408-0.659,2.97-0.896,4.507-1.126c-3.546-4.738-7.125-10.16-9.418-15.616c-9.01-6.443-17.137-13.975-24.085-22.601
				c-4.802-5.961-5.495-15.24-1.503-21.771c3.992-6.531,12.405-10.011,19.844-8.208
				C198.043,144.367,204.527,151.637,205.085,159.272z"/>
			<path style="fill:none;stroke:#060305;stroke-width:0.7;stroke-linecap:round;stroke-linejoin:round;stroke-miterlimit:10;" d="
				M207.494,162.704c-1.948-3.078-3.895-6.155-5.843-9.233"/>
			<path style="fill:none;stroke:#060305;stroke-width:0.7;stroke-linecap:round;stroke-linejoin:round;stroke-miterlimit:10;" d="
				M205.404,210.614c0.709,1.018,1.417,2.036,2.126,3.053"/>
			<path style="fill:none;stroke:#060305;stroke-width:0.7;stroke-linecap:round;stroke-linejoin:round;stroke-miterlimit:10;" d="
				M217.079,211.634c-0.177,1.062-0.354,2.124-0.531,3.186"/>
			<path style="fill:none;stroke:#060305;stroke-width:0.7;stroke-linecap:round;stroke-linejoin:round;stroke-miterlimit:10;" d="
				M221.342,207.744c-0.262,0.866-0.525,1.733-0.787,2.599"/>
		</g>
	</g>
	<polygon style="fill:#6D8DFD;" points="573.434,201.618 582.737,205.112 563.16,142.858 507.442,176.833 517.149,180.479 
		500.651,227.143 426.918,237.544 402.413,306.856 304.145,320.601 279.71,389.892 92.07,416.542 101.107,481.151 322.163,449.422 
		346.733,380.517 444.986,366.775 469.489,297.474 543.196,287.065 	"/>
</g>
</svg>
