<svg xmlns="http://www.w3.org/2000/svg" xml:space="preserve" style="enable-background:new 0 0 650 500" viewBox="0 0 650 500"><path d="M0 0h650v500H0z" style="fill:#eaefff"/><path d="M463.856 179.378c-8.081-3.559-18.796-5.758-21.028-14.302-2.179-8.345 5.695-15.46 10.464-22.646 12.898-19.431 1.855-48.134-18.538-59.451-20.392-11.317-46.163-8.302-67.453 1.219-21.29 9.521-39.373 24.792-58.291 38.432s-42.034 24.911-65.355 25.157c-20.472.215-44.476-4.111-64.218 1.312-43.642 11.987-77.915 52.537-82.462 97.567-4.547 45.029 20.926 91.613 61.29 112.084 28.4 14.403 61.922 16.163 93.27 10.568 31.348-5.595 61.002-18.085 90.039-31.156l103.44-47.355c19.007-13.001 36.423-30.414 42.497-52.626 6.075-22.215-2.58-49.522-23.655-58.803z" style="fill:#d5defe"/><circle cx="103.071" cy="261.663" r="13.45" style="fill:#ffb928" transform="rotate(-68.353 103.075 261.66)"/><path d="M108.941 262.013c-1.044-1.547-3.334-2.1-6.284-1.515-1.771.351-3.105.168-3.567-.489-.281-.397-.223-1.011.153-1.64.703-1.179 2.551-2.431 5.442-2.083l.225-1.871c-1.357-.164-2.546-.037-3.563.265l-1.115-2.583-1.73.747 1.123 2.6c-.914.562-1.588 1.269-2 1.958-.769 1.288-.797 2.668-.075 3.692.54.765 1.968 1.946 5.475 1.251 2.136-.423 3.764-.154 4.354.72.34.504.28 1.206-.16 1.879-.811 1.241-3.023 2.458-6.586 1.805l-.34 1.854c1.965.36 3.612.24 4.947-.156l1.116 2.585 1.73-.747-1.118-2.588c.808-.49 1.418-1.095 1.827-1.721.857-1.307.912-2.826.146-3.963z" style="fill:#f08200"/><path d="M467.868 115.208c2.792-6.884-.525-14.727-7.408-17.519-6.884-2.792-14.727.525-17.519 7.408-2.792 6.884.525 14.727 7.408 17.519 6.884 2.792 14.727-.525 17.519-7.408z" style="fill:#ffb928"/><path d="M459.274 114.58c.37-1.829-.844-3.849-3.33-5.54-1.492-1.015-2.298-2.094-2.155-2.884.086-.479.563-.868 1.276-1.042 1.333-.326 3.522.111 5.303 2.415l1.491-1.152c-.836-1.082-1.76-1.84-2.689-2.352l1.058-2.607-1.747-.708-1.065 2.624c-1.041-.257-2.018-.241-2.798-.051-1.457.356-2.46 1.305-2.683 2.538-.167.922-.005 2.768 2.95 4.778 1.801 1.225 2.751 2.574 2.543 3.608-.121.596-.663 1.046-1.451 1.205-1.454.293-3.873-.429-5.908-3.425l-1.559 1.059c1.122 1.652 2.364 2.741 3.583 3.415l-1.058 2.609 1.747.709 1.06-2.613c.916.231 1.776.242 2.508.094 1.53-.309 2.652-1.336 2.924-2.68z" style="fill:#f08200"/><path d="M412.109 422.919c-2.472-7.005-10.155-10.679-17.16-8.206-7.005 2.472-10.679 10.155-8.206 17.16 2.473 7.005 10.155 10.679 17.16 8.206 7.004-2.472 10.678-10.155 8.206-17.16z" style="fill:#ffb928"/><path d="M405.258 428.147c-.936-1.615-3.183-2.322-6.165-1.94-1.791.229-3.109-.044-3.526-.731-.253-.416-.154-1.024.264-1.626.782-1.128 2.711-2.251 5.571-1.707l.352-1.851c-1.343-.256-2.537-.211-3.572.022l-.936-2.653-1.777.627.943 2.671c-.95.498-1.671 1.158-2.129 1.817-.855 1.232-.977 2.608-.327 3.679.486.801 1.831 2.076 5.376 1.622 2.16-.276 3.766.103 4.295 1.016.305.526.197 1.223-.288 1.864-.894 1.183-3.184 2.246-6.694 1.351l-.465 1.827c1.935.493 3.587.485 4.946.182l.937 2.655 1.777-.627-.938-2.659c.839-.434 1.49-.996 1.94-1.592.944-1.249 1.103-2.761.416-3.947z" style="fill:#f08200"/><circle cx="528.616" cy="86.774" r="13.45" style="fill:#ffb928" transform="rotate(-.81 528.478 85.952)"/><path d="M534.361 88.024c-.793-1.69-2.971-2.588-5.975-2.465-1.804.074-3.094-.312-3.449-1.032-.216-.436-.065-1.033.403-1.597.877-1.056 2.895-2.009 5.698-1.22l.511-1.814c-1.315-.371-2.51-.428-3.561-.286l-.704-2.724-1.825.472.709 2.742c-.989.414-1.765 1.009-2.277 1.627-.958 1.154-1.199 2.514-.643 3.637.415.839 1.645 2.226 5.217 2.079 2.176-.089 3.743.428 4.192 1.382.258.55.091 1.235-.448 1.832-.993 1.101-3.366 1.963-6.786.769l-.621 1.78c1.886.658 3.531.793 4.912.607l.705 2.726 1.825-.472-.706-2.73c.874-.36 1.57-.864 2.07-1.419 1.047-1.16 1.336-2.653.753-3.894z" style="fill:#f08200"/><path d="M499.068 368.122c2.421-7.023-1.309-14.678-8.332-17.1-7.023-2.421-14.678 1.309-17.099 8.332-2.421 7.023 1.309 14.678 8.332 17.099 7.022 2.422 14.677-1.309 17.099-8.331z" style="fill:#ffb928"/><path d="M490.452 367.953c.272-1.846-1.048-3.798-3.621-5.354-1.544-.935-2.407-1.969-2.306-2.765.061-.483.516-.897 1.218-1.109 1.314-.396 3.522-.076 5.424 2.129l1.428-1.23c-.892-1.035-1.856-1.743-2.811-2.205l.917-2.66-1.782-.614-.923 2.677c-1.054-.201-2.028-.133-2.797.099-1.436.433-2.388 1.434-2.544 2.677-.117.929.143 2.764 3.201 4.614 1.863 1.127 2.885 2.424 2.731 3.467-.089.601-.606 1.08-1.385 1.28-1.436.37-3.89-.222-6.082-3.106l-1.5 1.141c1.209 1.59 2.507 2.611 3.76 3.219l-.918 2.662 1.782.614.919-2.665c.927.182 1.786.147 2.51-.039 1.514-.39 2.579-1.475 2.779-2.832z" style="fill:#f08200"/><circle cx="453.603" cy="77.446" r="2" style="fill:#436cfc"/><circle cx="337.314" cy="66.887" r="2" style="fill:#436cfc"/><circle cx="484.447" cy="330.396" r="2" style="fill:#436cfc"/><circle cx="361.051" cy="417.66" r="2" style="fill:#060305"/><circle cx="493.565" cy="142.09" r="2" style="fill:#436cfc"/><circle cx="461.858" cy="213.897" r="2" style="fill:#436cfc"/><circle cx="185.219" cy="329.281" r="2" style="fill:#829dfd"/><circle cx="137.097" cy="138.614" r="2" style="fill:#829dfd"/><circle cx="290.703" cy="290.506" r="2" style="fill:#436cfc"/><circle cx="522.952" cy="313.538" r="4" style="fill:#829dfd"/><circle cx="380.369" cy="181.45" r="4" style="fill:#fff"/><circle cx="155.746" cy="276.122" r="4" style="fill:#829dfd"/><path d="m453.986 30.473-9.65 5.572 9.65 5.572z" style="fill:#829dfd"/><path d="m308.34 295.358-4.028 10.391 11.012-1.707z" style="fill:#fff"/><path d="m153.115 212.197-10.763 2.884 7.879 7.88z" style="fill:#060305"/><path d="m389.607 118.856-4.766 10.073 11.106-.909zM422.31 197.614c-.088-2.306-2.134-4.379-5.614-5.687-2.089-.786-3.371-1.847-3.429-2.839-.036-.6.424-1.207 1.229-1.624 1.507-.78 4.264-.891 7.074 1.359l1.456-1.819c-1.319-1.056-2.65-1.698-3.916-2.043l.512-3.441-2.305-.343-.515 3.463c-1.326-.005-2.495.298-3.377.754-1.647.852-2.577 2.283-2.486 3.83.068 1.156.799 3.327 4.936 4.883 2.52.948 4.055 2.292 4.105 3.595.029.751-.492 1.45-1.393 1.87-1.661.775-4.778.612-8.096-2.397l-1.565 1.727c1.829 1.658 3.638 2.606 5.299 3.06l-.512 3.443 2.305.343.513-3.448c1.168.012 2.204-.226 3.041-.617 1.755-.815 2.803-2.375 2.738-4.069z" style="fill:#829dfd"/><path d="M166.41 100.8c-1.813-1.428-4.717-1.214-7.969.588-1.952 1.081-3.592 1.37-4.384.771-.48-.362-.644-1.106-.439-1.989.383-1.653 2.085-3.824 5.62-4.506l-.441-2.288c-1.659.32-3.011.917-4.094 1.657l-2.288-2.62-1.755 1.533 2.303 2.637c-.864 1.007-1.391 2.093-1.615 3.06-.419 1.807.068 3.442 1.305 4.376.924.697 3.052 1.548 6.918-.593 2.355-1.304 4.374-1.602 5.398-.795.59.465.785 1.314.521 2.273-.487 1.768-2.632 4.035-7.073 4.611l.3 2.311c2.449-.318 4.342-1.081 5.765-2.051l2.29 2.622 1.755-1.533-2.293-2.625c.766-.882 1.257-1.825 1.502-2.715.513-1.865.005-3.675-1.326-4.724z" style="fill:#436cfc"/><path d="M301.366 58.698c-.878-2.134-3.514-3.374-7.231-3.401-2.232-.017-3.801-.571-4.198-1.481-.241-.551-.018-1.279.594-1.948 1.146-1.252 3.695-2.307 7.109-1.165l.739-2.209c-1.602-.537-3.074-.68-4.38-.567l-.706-3.406-2.282.473.711 3.428c-1.247.453-2.24 1.14-2.91 1.872-1.253 1.368-1.631 3.032-1.012 4.453.463 1.061 1.898 2.847 6.317 2.88 2.693.02 4.597.752 5.093 1.958.286.695.039 1.531-.663 2.236-1.292 1.301-4.274 2.223-8.425.544l-.873 2.161c2.289.925 4.313 1.19 6.029 1.044l.707 3.409 2.282-.473-.708-3.413c1.1-.392 1.991-.973 2.642-1.628 1.364-1.373 1.81-3.199 1.165-4.767z" style="fill:#829dfd"/><path d="M119.086 358.241c-1.385-1.845-4.247-2.385-7.853-1.479-2.165.543-3.823.401-4.435-.381-.371-.473-.339-1.234.086-2.035.795-1.499 2.998-3.16 6.589-2.911l.162-2.324c-1.686-.117-3.146.113-4.382.549l-1.538-3.12-2.09 1.03 1.548 3.141c-1.093.751-1.882 1.666-2.347 2.542-.869 1.638-.818 3.344.137 4.564.714.911 2.552 2.28 6.838 1.204 2.611-.656 4.639-.424 5.422.618.451.601.421 1.472-.081 2.331-.924 1.583-3.58 3.224-8.02 2.639l-.304 2.311c2.448.322 4.474.071 6.098-.501l1.539 3.122 2.09-1.03-1.541-3.126c.967-.656 1.683-1.441 2.149-2.238.976-1.67.95-3.55-.067-4.906zM464.354 394.821l-1.499-1.499-3.943 3.943-3.943-3.943-1.499 1.499 3.943 3.943-3.943 3.943 1.499 1.499 3.943-3.943 3.943 3.943 1.499-1.499-3.943-3.943z" style="fill:#fff"/><path d="m198.656 241.483-1.958-.814-2.141 5.149-5.149-2.141-.814 1.957 5.149 2.141-2.141 5.149 1.957.814 2.141-5.149 5.149 2.141.814-1.957-5.149-2.141z" style="fill:#436cfc"/><path d="m470.572 157.408-.246-2.106-5.539.647-.647-5.538-2.106.246.648 5.538-5.539.647.246 2.106 5.539-.647.647 5.538 2.106-.246-.648-5.538z" style="fill:#060305"/><path d="M331.542 174.467c-6.447 4.526-12.333 8.807-18.78 13.333-6.991-2.876-14.08-6.449-21.071-9.325.129-5.244 3.002-10.392 6.364-14.419 2.497-2.991 4.871-5.865 7.368-8.856l-7.057-3.533c-1.271-11.847 2.12-24.358 10.305-33.017 8.02 5.066 16.167 10.08 24.188 15.146 6.969 4.402 11.35 12.947 11.135 21.188-.214 8.238-5.706 14.746-12.452 19.483z" style="fill:#ff9a7d"/><path d="M305.353 155.124a34.761 34.761 0 0 1 9.123-8.435" style="fill:none;stroke:#060305;stroke-width:.7;stroke-linecap:round;stroke-linejoin:round;stroke-miterlimit:10"/><path d="M170.76 150.772c10.672-16.059 40.004-29.362 40.004-29.362l8.734 35.715-20.643 8.958-28.095-15.311z" style="fill:#ff9a7d"/><path d="M300.269 143.19c1.04 5.32-1.33 11.15-5.54 14.59-.43 6.43-.95 12.74-1.38 19.17l-67.08 1.53c-.67-6.87-1.48-13.9-2.15-20.77-3.09 1.18-5.87 2.02-8.95 3.2-5.85-12.04-11.78-23.84-17.63-35.87 8.09-3.25 16.26-6.54 24.4-9.75 1.94-.77 3.88-1.53 5.82-2.29 5.8-2.28 11.61-4.55 17.41-6.82 3.14 2.87 7.04 4.35 11.29 4.47 4.25.13 8.53-1.31 11.83-3.98 6.78 1.29 13.52 2.82 20.2 4.59 8.09 2.13 16.08 4.63 23.91 7.5-4 8.14-8.14 16.29-12.13 24.43z" style="fill:#fff"/><path d="m259.096 112.709 2.452 13.18M235.584 158.445c2.827 2.724 6.785 4.236 10.709 4.091 3.923-.145 7.759-1.945 10.378-4.87M294.503 157.792a16.634 16.634 0 0 1-7.19 2.314" style="fill:none;stroke:#060305;stroke-width:.7;stroke-linecap:round;stroke-linejoin:round;stroke-miterlimit:10"/><path d="m269.17 106.126-6.319-1.637a6.54 6.54 0 0 1-5.502 1.741c-1.97-.316-4.056-1.403-4.979-3.171-3.163 1.06-5.987 1.992-9.15 3.051l9.11 15.216c2.139-3.501 4.391-6.984 6.53-10.485 3.756 2.743 7.503 5.506 11.259 8.249-.276-4.314-.672-8.651-.949-12.964zM224.119 157.71c-3.09 1.18-5.87 2.02-8.95 3.2-5.85-12.04-11.78-23.84-17.63-35.87 8.09-3.25 16.26-6.54 24.4-9.75 6.89 10.44 8.46 29.32 2.18 42.42z" style="fill:#97adfd"/><path d="m201.006 123.976 16.26 35.474" style="fill:none;stroke:#060305;stroke-width:.7;stroke-linecap:round;stroke-linejoin:round;stroke-miterlimit:10"/><path d="M300.269 143.19s-1.446-4.17-5.94-10.12l-5.84-21.81c8.09 2.13 16.08 4.63 23.91 7.5-4 8.14-8.14 16.29-12.13 24.43z" style="fill:#97adfd"/><path d="m308.785 117.795-9.092 23.21" style="fill:none;stroke:#060305;stroke-width:.7;stroke-linecap:round;stroke-linejoin:round;stroke-miterlimit:10"/><path d="M384.971 304.578c-1.868-.78-4.152-.406-6.128-.845-3.684-.819-6.326-4.264-7.308-7.909-.982-3.644-.614-7.499-.238-11.255-14.029 2.568-27.77 5.116-41.799 7.683.796 9.809 1.569 19.486 2.365 29.296l56.66-12.459c-.057-2.023-1.685-3.731-3.552-4.511z" style="fill:#060305"/><path d="m358.144 298.273 11.191-2.523M358.982 301.164l11.397-2.421M360.169 303.826l11.283-2.063" style="fill:none;stroke:#fff;stroke-width:.7;stroke-linecap:round;stroke-linejoin:round;stroke-miterlimit:10"/><path d="M269.468 366.876c-14.83 1.339-29.554 3.002-44.384 4.341 1.984 6.582.889 14.025-2.907 19.756-1.837 2.774-4.518 5.151-4.121 8.455l52.863-8.25c-.479-8.004-.973-16.298-1.451-24.302z" style="fill:#060305"/><path d="m234.856 380.561 16.247-2.51M234.956 383.507l17.514-3.032M234.978 386.585l18.331-2.959" style="fill:none;stroke:#fff;stroke-width:.7;stroke-linecap:round;stroke-linejoin:round;stroke-miterlimit:10"/><path d="M366.516 222.983c-1.699-15.867-17.959-25.345-32.722-31.405-13.138-5.393-26.519-10.531-39.657-15.925v-3.529l-68.408 3.41c-10.145 26.164-13.73 54.843-10.337 82.699 4.7 38.58 5.422 77.531 8.646 116.263 15.613-1.435 30.971-2.897 46.584-4.332.445-47.216 1.801-93.177 2.246-140.393 16.531 6.475 34.322 11.538 51.642 15.438 1.165 16.723 2.909 33.496 4.073 50.219 15.059-2.193 30.243-4.511 45.303-6.705-2.333-21.805-5.036-43.934-7.37-65.74z" style="fill:#436cfc"/><path d="M224.654 178.704c23.231-.89 46.461-1.771 69.692-2.652M237.527 178.589c-1.989 7.007-7.62 12.87-14.541 15.14M267.144 177.405l2.49 12.02c1.686-.039 3.288-.299 4.975-.338.08-4-.035-8.139.045-12.139M273.518 223.544l-.679 7.286M325.909 240.038l-1.555 6.02 2.801-3.964M328.015 287.615l44.819-5.687M223.552 367.336l47.268-3.423M237.014 77.004c8.492.407 19.408.77 25.829 1.541" style="fill:none;stroke:#060305;stroke-width:.7;stroke-linecap:round;stroke-linejoin:round;stroke-miterlimit:10"/><path d="M267.685 80.528c-1.737-2.367-5.025-2.668-7.96-2.632l-23.028.28-1.31 6.573 5.029.312a55.583 55.583 0 0 1-5.444 1.772l-1.362 6.834c6.208.623 12.305 1.133 18.513 1.756 4.249-3.889 10.005-6.368 15.759-6.626 1.622-2.447 1.539-5.902-.197-8.269z" style="fill:#060305"/><path d="M264.694 107.358c-.063-1.529-.065-3.256-.128-4.785a7.6 7.6 0 0 0 5.015-2.821c1.215-1.549 1.827-3.486 1.65-5.447-.28-3.102-.676-6.364-2.384-8.969-1.065-1.625-2.953-2.43-4.895-2.512-1.342 2.186-4.076 3.824-6.632 3.61-.721 1.315-1.516 2.264-2.237 3.579-1.718-1.144-4.138-1.116-5.829.069-1.691 1.184-2.545 3.448-2.057 5.454s2.286 3.625 4.332 3.901c-.287 2.354-.675 4.522-.962 6.875 1.512 2.185 3.829 3.7 6.465 4.035 2.637.336 5.651-1.251 7.662-2.989z" style="fill:#ff9a7d"/><circle cx="260.723" cy="91.794" r=".7" style="fill:#060305"/><circle cx="268.773" cy="91.094" r=".7" style="fill:#060305"/><path d="m265.31 91.066.589 3.029-1.349.023M258.943 88.314a2.188 2.188 0 0 1 1.663-1.446 2.189 2.189 0 0 1 2.058.788M267.026 87.612l2.412-.882M262.249 95.183c-.017.415.25.827.636.981a1.04 1.04 0 0 0 1.137-.273M250.509 92.073l3.526 1.303M251.37 99.59l1.825.086M264.838 102.682a15.681 15.681 0 0 1-7.244-.453M263.895 82.36a4.218 4.218 0 0 1-1.055 3.231" style="fill:none;stroke:#060305;stroke-width:.7;stroke-linecap:round;stroke-linejoin:round;stroke-miterlimit:10"/><path d="M205.085 159.272c5.523 6.938 16.295 20.864 16.295 20.864s3.157 13.599 4.596 20.26c-3.002 6.15-6.997 11.623-11.84 16.458-5.332-.414-10.62-1.245-15.952-1.659.41-1.499 1.667-2.65 3.075-3.309 1.408-.659 2.97-.896 4.507-1.126-3.546-4.738-7.125-10.16-9.418-15.616-9.01-6.443-17.137-13.975-24.085-22.601-4.802-5.961-5.495-15.24-1.503-21.771 3.992-6.531 12.405-10.011 19.844-8.208 7.439 1.803 13.923 9.073 14.481 16.708z" style="fill:#ff9a7d"/><path d="m207.494 162.704-5.843-9.233M205.404 210.614l2.126 3.053M217.079 211.634l-.531 3.186M221.342 207.744l-.787 2.599" style="fill:none;stroke:#060305;stroke-width:.7;stroke-linecap:round;stroke-linejoin:round;stroke-miterlimit:10"/><path d="m573.434 201.618 9.303 3.494-19.577-62.254-55.718 33.975 9.707 3.646-16.498 46.664-73.733 10.401-24.505 69.312-98.268 13.745-24.435 69.291-187.64 26.65 9.037 64.609 221.056-31.729 24.57-68.905 98.253-13.742 24.503-69.301 73.707-10.409z" style="fill:#6d8dfd"/></svg>