<svg xmlns="http://www.w3.org/2000/svg" width="650" height="500" fill="none"><g clip-path="url(#a)"><path fill="#fff" d="M0 0h650v500H0z"/><path fill="#94ddff" d="M0 0h650v500H0z"/><path fill="#d4f1ff" d="M463.86 179.38c-8.09-3.56-18.8-5.76-21.03-14.3-2.18-8.35 5.7-15.46 10.46-22.65 12.9-19.43 1.86-48.13-18.54-59.45s-46.16-8.3-67.45 1.22-39.37 24.79-58.29 38.43-42.03 24.91-65.35 25.16c-20.48.21-44.48-4.11-64.22 1.3-43.65 12-77.92 52.55-82.46 97.58-4.55 45.03 20.92 91.6 61.28 112.08 28.4 14.4 61.93 16.16 93.28 10.57 31.34-5.6 61-18.09 90.03-31.16l103.44-47.35c19.01-13 36.43-30.42 42.5-52.63s-2.58-49.52-23.65-58.8"/><path fill="#ffb928" d="M115.58 266.63a13.45 13.45 0 1 0-25-9.93 13.45 13.45 0 0 0 25 9.93"/><path fill="#f08200" d="M108.94 262.01c-1.04-1.54-3.33-2.1-6.28-1.51-1.77.35-3.1.17-3.57-.5-.28-.39-.22-1 .15-1.63.7-1.18 2.55-2.43 5.45-2.08l.22-1.88a9 9 0 0 0-3.56.27l-1.12-2.58-1.73.74 1.13 2.6a6 6 0 0 0-2 1.96c-.77 1.29-.8 2.67-.08 3.7.54.76 1.97 1.94 5.48 1.25 2.13-.43 3.76-.16 4.35.71.34.5.28 1.21-.16 1.88-.81 1.25-3.02 2.46-6.59 1.8l-.34 1.86c1.97.36 3.61.24 4.95-.15l1.12 2.58 1.73-.74-1.12-2.6c.8-.48 1.42-1.09 1.83-1.71.85-1.31.9-2.83.14-3.97"/><path fill="#ffb928" d="M467.87 115.2a13.45 13.45 0 1 0-24.93-10.1 13.45 13.45 0 0 0 24.93 10.1"/><path fill="#f08200" d="M459.27 114.58c.37-1.83-.84-3.85-3.33-5.54-1.49-1.02-2.3-2.1-2.15-2.88.08-.48.56-.87 1.27-1.05 1.34-.32 3.53.11 5.3 2.42l1.5-1.15a9 9 0 0 0-2.69-2.35l1.06-2.61-1.75-.71-1.06 2.62a6 6 0 0 0-2.8-.05c-1.46.36-2.46 1.3-2.69 2.54-.16.92 0 2.77 2.95 4.78 1.8 1.22 2.76 2.57 2.55 3.6-.12.6-.67 1.05-1.45 1.21-1.46.3-3.88-.43-5.91-3.42l-1.56 1.06a10.6 10.6 0 0 0 3.58 3.41l-1.05 2.61 1.74.7 1.06-2.6a6 6 0 0 0 2.51.09c1.53-.3 2.65-1.34 2.92-2.68"/><path fill="#ffb928" d="M412.1 422.92a13.45 13.45 0 1 0-25.36 8.95 13.45 13.45 0 0 0 25.37-8.95"/><path fill="#f08200" d="M405.26 428.15c-.94-1.62-3.19-2.32-6.17-1.94-1.79.23-3.1-.05-3.52-.73-.26-.42-.16-1.03.26-1.63.78-1.13 2.71-2.25 5.57-1.7l.35-1.86a9 9 0 0 0-3.57.02l-.93-2.65-1.78.63.94 2.67a6 6 0 0 0-2.13 1.82c-.85 1.23-.97 2.6-.32 3.68.48.8 1.83 2.07 5.37 1.62 2.16-.28 3.77.1 4.3 1.01.3.53.2 1.23-.3 1.87-.88 1.18-3.18 2.24-6.69 1.35l-.46 1.82c1.94.5 3.59.49 4.95.19l.93 2.65 1.78-.62-.94-2.66a6 6 0 0 0 1.94-1.6c.95-1.24 1.1-2.76.42-3.94"/><path fill="#ffb928" d="M528.82 100.22a13.45 13.45 0 1 0-.38-26.9 13.45 13.45 0 0 0 .38 26.9"/><path fill="#f08200" d="M534.36 88.02c-.8-1.69-2.97-2.58-5.97-2.46-1.8.07-3.1-.31-3.45-1.03-.22-.44-.07-1.04.4-1.6.88-1.06 2.9-2 5.7-1.22l.5-1.81a9 9 0 0 0-3.55-.29l-.7-2.72-1.83.47.7 2.74c-.98.41-1.76 1-2.27 1.63-.96 1.15-1.2 2.51-.64 3.63.41.84 1.64 2.23 5.22 2.08 2.17-.09 3.74.43 4.19 1.39.25.55.09 1.23-.45 1.83-1 1.1-3.37 1.96-6.79.77l-.62 1.78c1.89.65 3.53.79 4.91.6l.7 2.73 1.83-.47-.7-2.73a6 6 0 0 0 2.07-1.42c1.04-1.16 1.33-2.66.75-3.9"/><path fill="#ffb928" d="M499.07 368.12a13.45 13.45 0 1 0-25.43-8.77 13.45 13.45 0 0 0 25.43 8.77"/><path fill="#f08200" d="M490.45 367.95c.27-1.84-1.05-3.8-3.62-5.35-1.54-.94-2.4-1.97-2.3-2.77.06-.48.51-.9 1.21-1.1 1.32-.4 3.52-.08 5.43 2.12l1.43-1.23a9 9 0 0 0-2.82-2.2l.92-2.66-1.78-.62-.92 2.68a6 6 0 0 0-2.8.1c-1.44.43-2.39 1.44-2.55 2.68-.11.93.15 2.76 3.2 4.61 1.87 1.13 2.9 2.43 2.74 3.47-.1.6-.6 1.08-1.39 1.28-1.43.37-3.89-.22-6.08-3.1l-1.5 1.13a10.6 10.6 0 0 0 3.76 3.22l-.92 2.67 1.78.6.92-2.66c.93.19 1.79.15 2.51-.03 1.52-.4 2.58-1.48 2.78-2.84"/><path fill="#0047a3" d="M453.6 79.45a2 2 0 1 0 0-4 2 2 0 0 0 0 4M337.31 68.89a2 2 0 1 0 0-4 2 2 0 0 0 0 4M484.45 332.4a2 2 0 1 0 0-4 2 2 0 0 0 0 4"/><path fill="#060305" d="M361.05 419.66a2 2 0 1 0 0-4 2 2 0 0 0 0 4"/><path fill="#0047a3" d="M493.57 144.09a2 2 0 1 0 0-4 2 2 0 0 0 0 4M461.86 215.9a2 2 0 1 0 0-4 2 2 0 0 0 0 4"/><path fill="#00aaf9" d="M185.22 331.28a2 2 0 1 0 0-4 2 2 0 0 0 0 4M137.1 140.61a2 2 0 1 0 0-4 2 2 0 0 0 0 4"/><path fill="#0047a3" d="M290.7 292.5a2 2 0 1 0 0-4 2 2 0 0 0 0 4"/><path fill="#00aaf9" d="M522.95 317.54a4 4 0 1 0 0-8 4 4 0 0 0 0 8"/><path fill="#fff" d="M380.37 185.45a4 4 0 1 0 0-8 4 4 0 0 0 0 8"/><path fill="#00aaf9" d="M155.75 280.12a4 4 0 1 0 0-8 4 4 0 0 0 0 8M453.99 30.47l-9.65 5.58 9.65 5.57z"/><path fill="#fff" d="m308.34 295.36-4.03 10.39 11.01-1.7z"/><path fill="#060305" d="m153.12 212.2-10.77 2.88 7.88 7.88z"/><path fill="#00aaf9" d="m389.6 118.86-4.76 10.07 11.1-.91zm32.71 78.75c-.09-2.3-2.13-4.37-5.61-5.68-2.1-.79-3.37-1.85-3.43-2.84-.04-.6.42-1.2 1.23-1.63 1.5-.78 4.26-.89 7.07 1.36l1.46-1.82a11 11 0 0 0-3.92-2.04l.51-3.44-2.3-.34-.52 3.46c-1.32 0-2.5.3-3.37.75-1.65.86-2.58 2.29-2.5 3.83.08 1.16.8 3.33 4.94 4.89 2.52.94 4.06 2.29 4.11 3.6.03.74-.5 1.44-1.4 1.86-1.65.78-4.77.61-8.09-2.4l-1.56 1.73a13 13 0 0 0 5.3 3.06l-.52 3.44 2.3.35.52-3.45c1.17.01 2.2-.23 3.04-.62 1.76-.81 2.8-2.37 2.74-4.07"/><path fill="#0047a3" d="M166.41 100.8c-1.81-1.43-4.72-1.21-7.97.59-1.95 1.08-3.6 1.37-4.38.77-.48-.36-.65-1.1-.44-1.99.38-1.65 2.08-3.82 5.62-4.5l-.44-2.3c-1.66.33-3.01.92-4.1 1.66l-2.28-2.62-1.76 1.54 2.3 2.63c-.86 1.01-1.39 2.1-1.61 3.06-.42 1.81.07 3.44 1.3 4.38.93.7 3.06 1.55 6.92-.6 2.36-1.3 4.38-1.6 5.4-.79.59.47.78 1.31.52 2.27-.49 1.77-2.63 4.04-7.07 4.61l.3 2.32a13 13 0 0 0 5.76-2.05l2.3 2.62 1.75-1.54-2.3-2.62a7 7 0 0 0 1.5-2.72c.52-1.86.01-3.67-1.32-4.72"/><path fill="#00aaf9" d="M301.37 58.7c-.88-2.14-3.52-3.38-7.24-3.4-2.23-.02-3.8-.57-4.2-1.48-.23-.55-.01-1.28.6-1.95 1.15-1.25 3.7-2.3 7.11-1.17l.74-2.2c-1.6-.54-3.07-.69-4.38-.57l-.7-3.4-2.29.46.71 3.43a7.4 7.4 0 0 0-2.9 1.87c-1.26 1.37-1.64 3.04-1.02 4.46.46 1.06 1.9 2.84 6.32 2.88 2.69.02 4.6.75 5.09 1.95.29.7.04 1.54-.66 2.24-1.3 1.3-4.28 2.22-8.43.55l-.87 2.16a13 13 0 0 0 6.03 1.04l.7 3.4 2.29-.46-.71-3.42c1.1-.39 1.99-.97 2.64-1.62 1.37-1.38 1.81-3.2 1.17-4.77"/><path fill="#fff" d="M119.09 358.24c-1.39-1.84-4.25-2.38-7.86-1.48-2.16.55-3.82.4-4.43-.38-.37-.47-.34-1.23.08-2.03.8-1.5 3-3.16 6.6-2.92l.16-2.32c-1.7-.12-3.15.11-4.39.55l-1.53-3.12-2.1 1.03 1.55 3.14a7.4 7.4 0 0 0-2.34 2.54c-.87 1.64-.82 3.35.13 4.57.72.9 2.56 2.28 6.84 1.2 2.61-.65 4.64-.42 5.42.62.45.6.42 1.47-.08 2.33-.92 1.58-3.58 3.22-8.02 2.64l-.3 2.31c2.45.32 4.47.07 6.1-.5l1.53 3.12 2.1-1.03-1.55-3.12a7 7 0 0 0 2.15-2.24c.98-1.67.95-3.55-.06-4.9m345.26 36.58-1.5-1.5-3.94 3.94-3.94-3.94-1.5 1.5 3.94 3.94-3.94 3.95 1.5 1.5 3.94-3.95 3.94 3.95 1.5-1.5-3.94-3.95z"/><path fill="#0047a3" d="m198.66 241.48-1.96-.81-2.14 5.15-5.15-2.14-.82 1.95 5.15 2.15-2.14 5.14 1.96.82 2.14-5.15 5.15 2.14.81-1.96-5.15-2.14z"/><path fill="#060305" d="m470.57 157.4-.24-2.1-5.54.65-.65-5.54-2.1.25.64 5.53-5.54.65.25 2.1 5.54-.64.64 5.54 2.11-.25-.65-5.53z"/><path fill="#fecabb" d="M331.54 174.47c-6.44 4.52-12.33 8.8-18.78 13.33-6.99-2.88-14.08-6.45-21.07-9.33.13-5.24 3-10.39 6.37-14.41l7.36-8.86-7.05-3.53c-1.27-11.85 2.12-24.36 10.3-33.02 8.02 5.07 16.17 10.08 24.19 15.15 6.97 4.4 11.35 12.94 11.13 21.18s-5.7 14.75-12.45 19.49"/><path stroke="#060305" stroke-linecap="round" stroke-linejoin="round" stroke-miterlimit="10" stroke-width=".7" d="M305.35 155.12a35 35 0 0 1 9.13-8.43"/><path fill="#fecabb" d="M170.76 150.77c10.67-16.06 40-29.36 40-29.36l8.74 35.72-20.65 8.95z"/><path fill="#fff" d="M300.27 143.19c1.04 5.32-1.33 11.15-5.54 14.59-.43 6.43-.95 12.74-1.38 19.17l-67.08 1.53c-.67-6.87-1.48-13.9-2.15-20.77-3.1 1.18-5.87 2.02-8.95 3.2-5.85-12.04-11.78-23.84-17.63-35.87 8.09-3.25 16.26-6.54 24.4-9.75l5.82-2.29 17.4-6.82a17 17 0 0 0 11.3 4.47c4.25.13 8.53-1.31 11.83-3.98a292 292 0 0 1 20.2 4.59 267 267 0 0 1 23.9 7.5c-4 8.14-8.13 16.29-12.12 24.43"/><path stroke="#060305" stroke-linecap="round" stroke-linejoin="round" stroke-miterlimit="10" stroke-width=".7" d="m259.1 112.7 2.45 13.19m-25.97 32.55a14.8 14.8 0 0 0 10.71 4.1 14.8 14.8 0 0 0 10.38-4.87m37.83.12a16.6 16.6 0 0 1-7.19 2.32"/><path fill="#00aaf9" d="m269.17 106.13-6.32-1.64a6.5 6.5 0 0 1-5.5 1.74c-1.97-.32-4.06-1.4-4.98-3.17l-9.15 3.05 9.11 15.22c2.14-3.5 4.4-6.99 6.53-10.49q5.63 4.12 11.26 8.25c-.28-4.31-.67-8.65-.95-12.96m-45.05 51.58c-3.1 1.18-5.87 2.02-8.95 3.2-5.85-12.04-11.78-23.84-17.63-35.87 8.09-3.25 16.26-6.54 24.4-9.75 6.89 10.44 8.46 29.32 2.18 42.42"/><path stroke="#060305" stroke-linecap="round" stroke-linejoin="round" stroke-miterlimit="10" stroke-width=".7" d="m201 123.98 16.27 35.47"/><path fill="#00aaf9" d="M300.27 143.19s-1.45-4.17-5.94-10.12l-5.84-21.81a267 267 0 0 1 23.9 7.5c-4 8.14-8.13 16.29-12.12 24.43"/><path stroke="#060305" stroke-linecap="round" stroke-linejoin="round" stroke-miterlimit="10" stroke-width=".7" d="m308.79 117.8-9.1 23.2"/><path fill="#060305" d="M384.97 304.58c-1.87-.78-4.15-.4-6.13-.85-3.68-.82-6.32-4.26-7.3-7.9-.99-3.65-.62-7.5-.24-11.26-14.03 2.57-27.77 5.12-41.8 7.68l2.36 29.3 56.66-12.46c-.05-2.02-1.68-3.73-3.55-4.51"/><path stroke="#fff" stroke-linecap="round" stroke-linejoin="round" stroke-miterlimit="10" stroke-width=".7" d="m358.14 298.27 11.2-2.52m-10.36 5.41 11.4-2.42m-10.21 5.09 11.28-2.07"/><path fill="#060305" d="M269.47 366.88c-14.83 1.33-29.56 3-44.39 4.34a23.9 23.9 0 0 1-2.9 19.75c-1.84 2.78-4.52 5.15-4.12 8.46l52.86-8.25z"/><path stroke="#fff" stroke-linecap="round" stroke-linejoin="round" stroke-miterlimit="10" stroke-width=".7" d="m234.86 380.56 16.24-2.5m-16.14 5.45 17.51-3.03m-17.5 6.1 18.34-2.95"/><path fill="#0047a3" d="M366.52 222.98c-1.7-15.86-17.96-25.34-32.73-31.4-13.13-5.4-26.52-10.53-39.65-15.93v-3.53l-68.41 3.41a172 172 0 0 0-10.34 82.7c4.7 38.58 5.42 77.53 8.65 116.27 15.61-1.44 30.97-2.9 46.58-4.34.45-47.21 1.8-93.17 2.25-140.39 16.53 6.48 34.32 11.54 51.64 15.44 1.17 16.72 2.9 33.5 4.07 50.22 15.06-2.2 30.25-4.51 45.3-6.7-2.33-21.81-5.03-43.94-7.36-65.75"/><path stroke="#060305" stroke-linecap="round" stroke-linejoin="round" stroke-miterlimit="10" stroke-width=".7" d="m224.65 178.7 69.7-2.65m-56.82 2.54a22.8 22.8 0 0 1-14.54 15.14m44.15-16.32 2.5 12.02c1.68-.04 3.28-.3 4.97-.34.08-4-.04-8.14.04-12.14m-1.13 46.6-.68 7.28m53.07 9.2-1.56 6.03 2.8-3.97m.87 45.53 44.81-5.7m-149.28 85.42 47.27-3.43m-33.8-286.9c8.49.4 19.4.76 25.82 1.53"/><path fill="#060305" d="M267.69 80.53c-1.74-2.37-5.03-2.67-7.96-2.63l-23.03.28-1.31 6.57 5.03.31q-2.68 1.03-5.45 1.77l-1.36 6.84c6.2.62 12.3 1.13 18.51 1.75 4.25-3.89 10-6.36 15.76-6.62a7.4 7.4 0 0 0-.2-8.27"/><path fill="#fecabb" d="M264.7 107.36c-.07-1.53-.07-3.26-.13-4.79a7.71 7.71 0 0 0 6.67-8.27c-.29-3.1-.69-6.36-2.4-8.96a6 6 0 0 0-4.89-2.52c-1.34 2.19-4.07 3.83-6.63 3.61-.72 1.32-1.52 2.27-2.24 3.58a5.3 5.3 0 0 0-5.83.07 5.3 5.3 0 0 0-2.05 5.46 5.3 5.3 0 0 0 4.33 3.9c-.29 2.35-.68 4.52-.96 6.87a9.4 9.4 0 0 0 6.46 4.04c2.64.33 5.65-1.25 7.66-3"/><path fill="#060305" d="M260.72 92.5a.7.7 0 1 0 0-1.4.7.7 0 0 0 0 1.4M268.77 91.8a.7.7 0 1 0 0-1.4.7.7 0 0 0 0 1.4"/><path stroke="#060305" stroke-linecap="round" stroke-linejoin="round" stroke-miterlimit="10" stroke-width=".7" d="m265.31 91.07.59 3.03-1.35.02m-5.6-5.8a2.2 2.2 0 0 1 1.66-1.45 2.2 2.2 0 0 1 2.05.79m4.37-.05 2.4-.88m-7.18 8.45c-.02.42.25.83.63.98a1 1 0 0 0 1.14-.27m-13.51-3.82 3.53 1.3m-2.67 6.22 1.82.09m11.65 3c-2.42.42-4.9.26-7.25-.45m6.3-19.87a4.2 4.2 0 0 1-1.05 3.23"/><path fill="#fecabb" d="M205.09 159.27c5.52 6.94 16.29 20.87 16.29 20.87s3.16 13.6 4.6 20.26c-3 6.15-7 11.62-11.84 16.45-5.34-.41-10.62-1.24-15.96-1.66a5.5 5.5 0 0 1 3.08-3.3c1.4-.66 2.97-.9 4.5-1.13-3.54-4.74-7.12-10.16-9.41-15.62a122 122 0 0 1-24.09-22.6c-4.8-5.96-5.5-15.24-1.5-21.77s12.4-10 19.84-8.2 13.93 9.07 14.49 16.7"/><path stroke="#060305" stroke-linecap="round" stroke-linejoin="round" stroke-miterlimit="10" stroke-width=".7" d="m207.5 162.7-5.85-9.23m3.75 57.14 2.13 3.06m9.55-2.04-.53 3.19m4.8-7.08-.8 2.6"/><path fill="#0047a3" d="m573.43 201.62 9.3 3.5-19.57-62.26-55.72 33.97 9.7 3.65-16.49 46.66-73.73 10.4-24.5 69.32-98.28 13.74-24.43 69.3-187.64 26.64 9.04 64.61 221.05-31.73 24.57-68.9L445 366.77l24.5-69.3 73.7-10.4z"/></g><defs><clipPath id="a"><path fill="#fff" d="M0 0h650v500H0z"/></clipPath></defs></svg>