<svg xmlns="http://www.w3.org/2000/svg" width="588" height="148" fill="none"><path fill="#7c4dff" d="M66.373 111.443c-.08-2.311 1.721-4.443 4.156-4.443h24.946c2.435 0 4.236 2.132 4.155 4.443-.077 2.221.023 5.097.747 7.443.726 2.353 1.951 3.84 3.957 4.031v2.167c-2.006.191-3.23 1.678-3.957 4.031-.724 2.345-.824 5.222-.747 7.443.08 2.31-1.721 4.442-4.155 4.442H70.529c-2.434 0-4.236-2.132-4.155-4.443.077-2.221-.023-5.097-.747-7.443-.726-2.353-1.954-3.84-3.96-4.031v-2.167c2.006-.191 3.233-1.678 3.96-4.031.723-2.345.824-5.221.746-7.442"/><path fill="#fff" d="M86.073 123.464v-.028c1.853-.32 3.299-2.057 3.299-3.97 0-1.352-.52-2.498-1.504-3.312-.981-.812-2.357-1.241-3.981-1.241H76.45v18.167h7.475c1.942 0 3.555-.474 4.663-1.372s1.696-2.207 1.696-3.783c-.001-2.381-1.691-4.169-4.211-4.461m-3.483-.856h-3.181v-5.318h3.784c2.076 0 3.219.911 3.219 2.565.001 1.775-1.357 2.753-3.822 2.753m-3.181 2.226h3.759c2.716 0 4.092.981 4.092 2.916 0 1.932-1.357 2.953-3.925 2.953h-3.926z"/><path fill="#e65100" d="M506 10h-34l3 34 14 4 14-4z"/><path fill="#ff6d00" d="M489 13v31.9l11.2-3.2 2.5-28.7z"/><path fill="#fff" d="M489 30v-4h8.6l-.7 11.5-7.9 2.6v-4.2l4.1-1.4.3-4.5zm8.9-8 .3-4H489v4z"/><path fill="#eee" d="M489 35.9v4.2l-7.9-2.6-.4-5.5h4l.2 2.5zM484.1 22h4.9v-4h-9.1l.7 12h8.4v-4h-4.6z"/><path fill="#03a9f4" d="M317 10a4 4 0 0 1 4-4h28a4 4 0 0 1 4 4v28a4 4 0 0 1-4 4h-28a4 4 0 0 1-4-4z"/><path fill="#020f16" d="M331.016 19.174h-2.002v4.434h1.973q.82 0 1.27-.537.45-.538.449-1.563 0-1.065-.459-1.694a1.47 1.47 0 0 0-1.231-.64"/><path fill="#020f16" d="M320 9v30h30V9zm14.365 15.789Q333.125 26 330.928 26h-1.914v5h-2.871V16.781h4.844q2.11 0 3.364 1.309t1.255 3.398q0 2.09-1.241 3.301m9.317 5.547q-1.064.86-2.793.859-1.163 0-2.051-.454a3.45 3.45 0 0 1-1.392-1.265 3.26 3.26 0 0 1-.503-1.748h2.627q.02.722.337 1.084.318.361 1.04.361 1.113 0 1.113-1.006 0-.352-.337-.649t-1.498-.805q-1.709-.693-2.349-1.436t-.64-1.846q0-1.387 1.001-2.29 1.002-.903 2.651-.903 1.737 0 2.783.898t1.045 2.412h-2.764q0-1.289-1.074-1.289-.439 0-.723.273-.284.274-.283.762 0 .351.313.62.312.269 1.475.767 1.69.626 2.388 1.392.698.767.698 1.987 0 1.417-1.064 2.276"/><path fill="#7cb342" d="M172.216 33.78c-.023-.211-.211-.305-.351-.305s-3.21-.234-3.21-.234-2.132-2.132-2.39-2.343c-.234-.234-.68-.164-.867-.117-.023 0-.469.141-1.195.375-.726-2.086-1.968-3.984-4.194-3.984h-.211c-.611-.797-1.407-1.172-2.063-1.172-5.155 0-7.639 6.444-8.412 9.725-2.015.633-3.445 1.054-3.609 1.125-1.125.351-1.148.375-1.289 1.429-.117.797-3.046 23.456-3.046 23.456l22.8 4.265 12.373-2.671c.023-.047-4.312-29.338-4.336-29.549m-9.279-2.297c-.562.164-1.242.375-1.921.609v-.421c0-1.265-.164-2.296-.469-3.117 1.171.141 1.898 1.43 2.39 2.929m-3.82-2.671c.305.797.516 1.922.516 3.468v.234c-1.265.398-2.601.797-3.984 1.242.773-2.952 2.25-4.405 3.468-4.944m-1.5-1.453c.234 0 .469.094.656.234-1.664.773-3.421 2.718-4.148 6.655-1.101.351-2.156.656-3.163.984.844-2.999 2.953-7.873 6.655-7.873"/><path fill="#558b2f" d="M171.865 33.428c-.141 0-3.21-.234-3.21-.234s-2.132-2.132-2.39-2.343a.46.46 0 0 0-.305-.141L164.249 66l12.373-2.671s-4.335-29.338-4.359-29.549a.64.64 0 0 0-.398-.352"/><path fill="#fff" d="m159.792 40.593-1.475 4.449s-1.337-.715-2.927-.715c-2.374 0-2.489 1.498-2.489 1.867 0 2.028 5.301 2.812 5.301 7.583 0 3.757-2.374 6.177-5.578 6.177-3.872 0-5.808-2.397-5.808-2.397l1.037-3.411s2.028 1.752 3.734 1.752c1.129 0 1.59-.876 1.59-1.521 0-2.651-4.333-2.766-4.333-7.145 0-3.665 2.628-7.214 7.952-7.214 1.981-.024 2.996.575 2.996.575"/><path fill="#a64a7b" d="M450 100h-38a4 4 0 0 0-4 4v16a4 4 0 0 0 4 4h19l8 4-2-4h13a4 4 0 0 0 4-4v-16a4 4 0 0 0-4-4"/><path fill="#fff" d="M447.443 108c.041 0 .132.005.277.038.342.077.559.198.82.686.31.559.46 1.283.46 2.215 0 1.398-.317 2.639-.973 3.802-.706 1.259-1.222 1.259-1.47 1.259-.041 0-.132-.005-.277-.038-.342-.077-.559-.198-.809-.666-.313-.574-.471-1.333-.471-2.253 0-1.399.314-2.63.963-3.765.728-1.278 1.255-1.278 1.48-1.278m0-3c-1.67 0-3.026.931-4.087 2.793q-1.356 2.373-1.356 5.25 0 2.15.835 3.686c.626 1.173 1.548 1.88 2.783 2.16q.495.111.939.111c1.687 0 3.043-.931 4.087-2.793.904-1.601 1.356-3.351 1.356-5.268 0-1.452-.278-2.662-.835-3.668-.626-1.173-1.548-1.88-2.783-2.16a4.3 4.3 0 0 0-.939-.111M435.443 108c.041 0 .132.005.268.036.333.076.571.207.829.689.31.558.46 1.282.46 2.214 0 1.398-.317 2.639-.973 3.802-.706 1.259-1.222 1.259-1.47 1.259-.041 0-.132-.005-.277-.038-.342-.077-.559-.198-.809-.666-.313-.574-.471-1.333-.471-2.253 0-1.399.314-2.63.963-3.765.728-1.278 1.255-1.278 1.48-1.278m0-3c-1.67 0-3.026.931-4.087 2.793q-1.356 2.373-1.356 5.25 0 2.15.835 3.686c.626 1.173 1.548 1.88 2.783 2.16q.495.111.939.111c1.687 0 3.043-.931 4.087-2.793.904-1.601 1.356-3.351 1.356-5.268 0-1.452-.278-2.662-.835-3.668-.626-1.173-1.565-1.88-2.783-2.16a4.3 4.3 0 0 0-.939-.111M425.5 121c-.421 0-.832-.178-1.123-.505-2.196-2.479-3.545-5.735-4.34-8.343-1.144 2.42-2.688 5.515-4.251 8.119a1.5 1.5 0 0 1-2.733-.378c-2.212-8.127-3.007-13.95-3.039-14.194a1.5 1.5 0 0 1 2.973-.4c.007.049.571 4.177 2.033 10.199 2.218-4.208 4.078-8.535 4.102-8.59a1.5 1.5 0 0 1 2.865.388c.007.052.542 3.825 2.245 7.451.719-7.166 2.873-10.839 2.982-11.021a1.5 1.5 0 0 1 2.573 1.543c-.025.044-2.787 4.846-2.787 14.231a1.5 1.5 0 0 1-1.5 1.5"/><path fill="#0277bd" d="M41 18H7l3 34 14 4 14-4z"/><path fill="#039be5" d="M24 21v31.9l11.2-3.2L37.7 21z"/><path fill="#fff" d="M33.1 26H24v4h4.9l-.3 4H24v4h4.4l-.3 4.5-4.1 1.4v4.2l7.9-2.6.7-11.5z"/><path fill="#eee" d="M24 26v4h-8.9l-.3-4zm-4.6 8 .2 4H24v-4zm.4 6h-4l.3 5.5 7.9 2.6v-4.2l-4.1-1.4z"/><path fill="#e64a19" d="M566 112h-8a7 7 0 1 1 0-14h8z"/><path fill="#7c4dff" d="M565 126h-7a7 7 0 1 1 0-14h7z"/><path fill="#66bb6a" d="M558 140a7 7 0 1 1 0-14h7v7a7 7 0 0 1-7 7"/><path fill="#ff7043" d="M572 112h-7V98h7a7 7 0 1 1 0 14"/><path fill="#29b6f6" d="M572 126a7 7 0 1 0 0-14 7 7 0 0 0 0 14"/><path fill="#fff" d="M252 123.95c11.018 0 19.95-8.932 19.95-19.95S263.018 84.05 252 84.05s-19.95 8.932-19.95 19.95 8.932 19.95 19.95 19.95"/><path fill="#01579b" d="M236.001 104c0 6.336 3.68 11.806 9.018 14.4l-7.634-20.912a15.9 15.9 0 0 0-1.384 6.512m26.803-.806c0-1.977-1.063-3.35-1.67-4.412-.813-1.329-1.576-2.437-1.576-3.752 0-1.465 1.471-2.84 3.041-2.84.071 0 .135.006.206.008A15.9 15.9 0 0 0 252.001 88c-5.389 0-10.153 2.666-13.052 6.749.228.074.307.039.611.039 1.669 0 4.264-.2 4.264-.2.86-.057.965 1.212.099 1.316 0 0-.864.105-1.828.152l5.931 17.778 3.5-10.501-2.603-7.248c-.861-.046-1.679-.152-1.679-.152-.862-.056-.762-1.375.098-1.316 0 0 2.648.2 4.217.2 1.675 0 4.264-.2 4.264-.2.861-.057.965 1.212.104 1.316 0 0-.87.105-1.832.152l5.891 17.61 1.599-5.326c.814-2.08 1.219-3.8 1.219-5.175m-10.523 2.202-4.8 13.952c1.436.426 2.95.652 4.52.652 1.861 0 3.649-.324 5.316-.907-.04-.071-.085-.143-.118-.22zm13.762-9.078q.107.766.108 1.645c0 1.628-.306 3.451-1.219 5.737l-4.885 14.135A16 16 0 0 0 268 104a16 16 0 0 0-1.957-7.682"/><path fill="#01579b" d="M232 104c0 11.024 8.97 20 19.999 20C263.03 124 272 115.024 272 104s-8.97-20-20-20-20 8.976-20 20m1.995 0c0-9.924 8.074-17.999 18.004-17.999s18.006 8.075 18.006 17.999-8.076 18.001-18.005 18.001-18.005-8.077-18.005-18.001"/></svg>