<svg xmlns="http://www.w3.org/2000/svg" width="384" height="210" fill="none"><path fill="#e64a19" d="M357.25 172.125h-9a7.875 7.875 0 0 1 0-15.75h9z"/><path fill="#7c4dff" d="M356.125 187.875h-7.875a7.875 7.875 0 0 1 0-15.75h7.875z"/><path fill="#66bb6a" d="M348.25 203.625a7.875 7.875 0 0 1 0-15.75h7.875v7.875a7.875 7.875 0 0 1-7.875 7.875"/><path fill="#ff7043" d="M364 172.125h-7.875v-15.75H364a7.875 7.875 0 0 1 0 15.75"/><path fill="#29b6f6" d="M364 187.875a7.875 7.875 0 1 0 0-15.75 7.875 7.875 0 0 0 0 15.75"/><path fill="#0277bd" d="M46.125 8.625H7.875l3.375 38.25 15.75 4.5 15.75-4.5z"/><path fill="#039be5" d="M27 12v35.888l12.6-3.6L42.413 12z"/><path fill="#fff" d="M37.238 17.625H27v4.5h5.513l-.338 4.5H27v4.5h4.95l-.337 5.063L27 37.763v4.724l8.888-2.925.787-12.937z"/><path fill="#eee" d="M27 17.625v4.5H16.988l-.338-4.5zm-5.175 9 .225 4.5H27v-4.5zm.45 6.75h-4.5l.338 6.188L27 42.487v-4.724l-4.613-1.575z"/><path fill="#7cb342" d="M115.868 81.253c-.026-.238-.237-.344-.395-.344-.157 0-3.611-.263-3.611-.263s-2.399-2.398-2.689-2.636c-.263-.263-.765-.184-.975-.131-.026 0-.528.158-1.345.421-.816-2.346-2.214-4.481-4.718-4.481h-.237c-.688-.897-1.583-1.319-2.321-1.319-5.8 0-8.594 7.25-9.464 10.94-2.266.713-3.875 1.186-4.06 1.266-1.265.395-1.291.422-1.45 1.608-.131.897-3.427 26.388-3.427 26.388l25.65 4.798 13.92-3.005c.026-.053-4.851-33.005-4.878-33.243m-10.439-2.585c-.632.185-1.397.422-2.161.685v-.473c0-1.423-.184-2.583-.528-3.507 1.318.159 2.136 1.609 2.689 3.295m-4.297-3.005c.343.897.58 2.163.58 3.902v.263c-1.423.448-2.926.897-4.482 1.397.87-3.32 2.531-4.955 3.902-5.561m-1.688-1.634c.263 0 .528.106.738.263-1.872.87-3.849 3.058-4.666 7.487-1.239.395-2.426.738-3.559 1.107.95-3.374 3.322-8.857 7.487-8.857"/><path fill="#558b2f" d="M115.473 80.857c-.158 0-3.611-.264-3.611-.264s-2.399-2.398-2.689-2.636a.51.51 0 0 0-.343-.158l-1.925 39.701 13.92-3.005s-4.877-33.005-4.904-33.243a.72.72 0 0 0-.448-.395"/><path fill="#fff" d="m101.891 88.917-1.659 5.005s-1.504-.804-3.293-.804c-2.671 0-2.8 1.685-2.8 2.1 0 2.282 5.963 3.164 5.963 8.531 0 4.227-2.67 6.949-6.275 6.949-4.356 0-6.534-2.696-6.534-2.696l1.167-3.838s2.281 1.971 4.2 1.971c1.27 0 1.79-.985 1.79-1.711 0-2.982-4.876-3.112-4.876-8.038 0-4.123 2.957-8.116 8.947-8.116 2.228-.027 3.37.647 3.37.647"/><path fill="#03a9f4" d="M176.75 11.25a4.5 4.5 0 0 1 4.5-4.5h31.5a4.5 4.5 0 0 1 4.5 4.5v31.5a4.5 4.5 0 0 1-4.5 4.5h-31.5a4.5 4.5 0 0 1-4.5-4.5z"/><path fill="#020f16" d="M192.518 21.57h-2.252v4.99h2.219q.924 0 1.429-.605.506-.605.505-1.758 0-1.199-.516-1.906a1.66 1.66 0 0 0-1.385-.72"/><path fill="#020f16" d="M180.125 10.125v33.75h33.75v-33.75zm16.161 17.763q-1.395 1.363-3.867 1.362h-2.153v5.625h-3.23V18.879h5.449q2.373 0 3.785 1.472t1.412 3.823-1.396 3.714m10.481 6.24q-1.197.967-3.142.966-1.308 0-2.307-.51a3.9 3.9 0 0 1-1.566-1.424 3.66 3.66 0 0 1-.566-1.966h2.955q.023.812.379 1.22.358.405 1.17.406 1.252 0 1.252-1.132 0-.396-.379-.73-.378-.334-1.685-.906-1.922-.779-2.643-1.615-.72-.837-.719-2.077 0-1.561 1.126-2.576 1.126-1.017 2.982-1.016 1.955 0 3.131 1.01t1.175 2.714h-3.109q0-1.45-1.208-1.45-.494 0-.814.306-.319.308-.318.858 0 .395.352.697.351.303 1.659.863 1.902.704 2.687 1.566.786.863.785 2.235 0 1.595-1.197 2.561"/><path fill="#e65100" d="M303.125 82.625h-38.25l3.375 38.25 15.75 4.5 15.75-4.5z"/><path fill="#ff6d00" d="M284 86v35.888l12.6-3.6L299.413 86z"/><path fill="#fff" d="M284 105.125v-4.5h9.675l-.788 12.937-8.887 2.925v-4.725l4.613-1.574.337-5.063zm10.013-9 .337-4.5H284v4.5z"/><path fill="#eee" d="M284 111.762v4.725l-8.888-2.925-.45-6.187h4.5l.225 2.813zm-5.513-15.637H284v-4.5h-10.238l.788 13.5H284v-4.5h-5.175z"/><path fill="#7c4dff" d="M8.295 168.873c-.09-2.6 1.936-4.998 4.675-4.998h28.064c2.74 0 4.766 2.398 4.675 4.998-.087 2.499.026 5.734.84 8.374.817 2.647 2.195 4.32 4.452 4.535v2.437c-2.257.215-3.634 1.888-4.452 4.535-.814 2.638-.927 5.875-.84 8.374.09 2.598-1.936 4.997-4.675 4.997H12.97c-2.738 0-4.765-2.399-4.674-4.998.086-2.499-.026-5.734-.84-8.374-.817-2.647-2.199-4.32-4.456-4.535v-2.437c2.257-.215 3.637-1.888 4.455-4.535.814-2.638.927-5.874.84-8.373"/><path fill="#fff" d="M30.457 182.397v-.032c2.085-.36 3.712-2.314 3.712-4.466 0-1.521-.585-2.81-1.692-3.726-1.104-.913-2.652-1.396-4.48-1.396h-8.366v20.438h8.41c2.184 0 3.999-.533 5.245-1.544 1.248-1.011 1.908-2.482 1.908-4.255 0-2.679-1.902-4.691-4.737-5.019m-3.918-.963H22.96v-5.983h4.257c2.336 0 3.622 1.025 3.622 2.886 0 1.997-1.527 3.097-4.3 3.097m-3.579 2.504h4.229c3.055 0 4.604 1.104 4.604 3.281 0 2.173-1.527 3.322-4.416 3.322H22.96zM186 175.444c12.395 0 22.444-10.049 22.444-22.444S198.395 130.556 186 130.556 163.556 140.605 163.556 153s10.049 22.444 22.444 22.444"/><path fill="#01579b" d="M168.001 153c0 7.128 4.14 13.282 10.145 16.2l-8.588-23.526a17.9 17.9 0 0 0-1.557 7.326m30.153-.907c0-2.224-1.195-3.769-1.878-4.963-.915-1.495-1.773-2.742-1.773-4.221 0-1.648 1.655-3.195 3.421-3.195.08 0 .152.006.232.009A17.9 17.9 0 0 0 186.001 135c-6.063 0-11.422 2.999-14.683 7.593.256.083.345.044.687.044 1.878 0 4.797-.225 4.797-.225.967-.065 1.086 1.363.111 1.48 0 0-.972.118-2.056.171l6.672 20 3.938-11.813-2.929-8.154a29 29 0 0 1-1.889-.171c-.969-.063-.857-1.547.111-1.481 0 0 2.979.225 4.744.225 1.884 0 4.797-.225 4.797-.225.968-.064 1.085 1.364.117 1.481 0 0-.979.118-2.061.171l6.627 19.811 1.799-5.992c.916-2.34 1.371-4.275 1.371-5.822m-11.838 2.477-5.4 15.696c1.616.48 3.319.734 5.085.734 2.094 0 4.105-.365 5.981-1.02-.045-.08-.096-.161-.133-.248zm15.482-10.212q.121.861.122 1.85c0 1.832-.344 3.883-1.372 6.455l-5.495 15.901C200.406 165.446 204 159.64 204 153c0-3.129-.8-6.07-2.202-8.642"/><path fill="#01579b" d="M163.5 153c0 12.402 10.091 22.5 22.499 22.5 12.41 0 22.501-10.098 22.501-22.5s-10.091-22.5-22.5-22.5-22.5 10.098-22.5 22.5m2.244 0c0-11.164 9.084-20.249 20.255-20.249s20.257 9.085 20.257 20.249-9.086 20.251-20.256 20.251-20.256-9.087-20.256-20.251"/><path fill="#a64a7b" d="M378.375 22.375h-42.75a4.5 4.5 0 0 0-4.5 4.5v18a4.5 4.5 0 0 0 4.5 4.5H357l9 4.5-2.25-4.5h14.625a4.5 4.5 0 0 0 4.5-4.5v-18a4.5 4.5 0 0 0-4.5-4.5"/><path fill="#fff" d="M375.498 31.375c.047 0 .149.006.312.043.385.086.629.223.923.772.348.628.517 1.443.517 2.491 0 1.573-.357 2.97-1.095 4.278-.794 1.416-1.374 1.416-1.653 1.416-.047 0-.149-.006-.312-.043-.385-.086-.629-.223-.91-.749-.352-.646-.53-1.5-.53-2.535 0-1.574.353-2.958 1.083-4.235.819-1.438 1.412-1.438 1.665-1.438m0-3.375c-1.878 0-3.404 1.047-4.598 3.142q-1.525 2.67-1.525 5.906 0 2.42.939 4.147c.705 1.32 1.742 2.115 3.131 2.43q.558.125 1.057.125c1.897 0 3.423-1.047 4.598-3.142 1.017-1.801 1.525-3.77 1.525-5.927 0-1.633-.313-2.994-.939-4.126-.705-1.32-1.742-2.115-3.131-2.43a5 5 0 0 0-1.057-.125M361.998 31.375c.047 0 .149.006.302.04.375.086.642.233.933.776.348.627.517 1.442.517 2.49 0 1.573-.357 2.97-1.095 4.278-.794 1.416-1.374 1.416-1.653 1.416-.047 0-.149-.006-.312-.043-.385-.086-.629-.223-.91-.749-.352-.646-.53-1.5-.53-2.535 0-1.574.353-2.958 1.083-4.235.819-1.438 1.412-1.438 1.665-1.438m0-3.375c-1.878 0-3.404 1.047-4.597 3.142q-1.526 2.67-1.526 5.906 0 2.42.939 4.147c.705 1.32 1.742 2.115 3.131 2.43q.558.125 1.057.125c1.897 0 3.423-1.047 4.598-3.142 1.017-1.801 1.525-3.77 1.525-5.927 0-1.633-.313-2.994-.939-4.126-.705-1.32-1.761-2.115-3.131-2.43a5 5 0 0 0-1.057-.125M350.813 46c-.474 0-.936-.2-1.264-.568-2.47-2.789-3.988-6.452-4.882-9.386-1.287 2.723-3.024 6.204-4.783 9.134a1.686 1.686 0 0 1-3.074-.425c-2.489-9.143-3.383-15.694-3.419-15.969a1.688 1.688 0 0 1 3.344-.45c.008.056.643 4.7 2.288 11.474 2.495-4.734 4.587-9.602 4.614-9.664a1.69 1.69 0 0 1 3.223.437c.008.059.61 4.303 2.526 8.382.809-8.061 3.232-12.194 3.355-12.398a1.688 1.688 0 0 1 2.894 1.736c-.028.05-3.135 5.451-3.135 16.01A1.687 1.687 0 0 1 350.813 46"/></svg>