<?xml version="1.0" standalone="no"?><svg xmlns="http://www.w3.org/2000/svg" viewBox="0 0 1440 320"><path fill="#d4f1ff" fill-opacity="1" d="M0,224L30,197.3C60,171,120,117,180,112C240,107,300,149,360,176C420,203,480,213,540,208C600,203,660,181,720,170.7C780,160,840,160,900,149.3C960,139,1020,117,1080,106.7C1140,96,1200,96,1260,85.3C1320,75,1380,53,1410,42.7L1440,32L1440,0L1410,0C1380,0,1320,0,1260,0C1200,0,1140,0,1080,0C1020,0,960,0,900,0C840,0,780,0,720,0C660,0,600,0,540,0C480,0,420,0,360,0C300,0,240,0,180,0C120,0,60,0,30,0L0,0Z"></path></svg>