<?xml version="1.0" standalone="no"?><svg xmlns="http://www.w3.org/2000/svg" viewBox="0 0 1440 320"><path fill="#d4f1ff" fill-opacity="1" d="M0,96L26.7,117.3C53.3,139,107,181,160,170.7C213.3,160,267,96,320,85.3C373.3,75,427,117,480,154.7C533.3,192,587,224,640,218.7C693.3,213,747,171,800,170.7C853.3,171,907,213,960,229.3C1013.3,245,1067,235,1120,208C1173.3,181,1227,139,1280,133.3C1333.3,128,1387,160,1413,176L1440,192L1440,320L1413.3,320C1386.7,320,1333,320,1280,320C1226.7,320,1173,320,1120,320C1066.7,320,1013,320,960,320C906.7,320,853,320,800,320C746.7,320,693,320,640,320C586.7,320,533,320,480,320C426.7,320,373,320,320,320C266.7,320,213,320,160,320C106.7,320,53,320,27,320L0,320Z"></path></svg>